Coordinates
version=1
nRows=9
nColumns=42
inDegrees=yes

Units are S.I. units (second, meters, Newtons, ...)
If the header above contains a line with 'inDegrees', this indicates whether rotational values are in degrees (yes) or radians (no).

endheader
time	pelvis_tilt	pelvis_list	pelvis_rotation	pelvis_tx	pelvis_ty	pelvis_tz	hip_flexion_r	hip_adduction_r	hip_rotation_r	knee_angle_r	knee_adduction_r	knee_angle_r_beta	ankle_angle_r	subtalar_angle_r	mtp_angle_r	hip_flexion_l	hip_adduction_l	hip_rotation_l	knee_angle_l	knee_adduction_l	knee_angle_l_beta	ankle_angle_l	subtalar_angle_l	mtp_angle_l	lumbar_extension	lumbar_bending	lumbar_rotation	arm_flex_r	arm_add_r	arm_rot_r	elbow_flex_r	pro_sup_r	wrist_flex_r	wrist_dev_r	arm_flex_l	arm_add_l	arm_rot_l	elbow_flex_l	pro_sup_l	wrist_flex_l	wrist_dev_l
      0.97000000	     -8.01243221	      2.08087154	      0.60240996	     -0.67778551	      0.93037923	     -0.08874310	     -4.28634417	      0.19940268	     -4.84678149	     35.19809265	     -2.76020053	      0.61432261	      5.53277764	     -5.83131939	     -7.63796478	     31.52052823	      5.73767219	      7.03141116	     24.67330236	     -0.70820404	      0.43063036	      4.38674561	     -8.03803255	     -7.63796478	     -1.62648959	     -8.10563071	      4.20067989	     -0.22654940	    -11.51708079	     -2.68103580	     27.12864560	     90.00000001	      0.00000000	      0.00000000	    -11.17685519	    -12.08580824	    -13.85904285	     17.81852175	     90.00000001	      0.00000000	      0.00000000
      0.98000000	     -7.88718449	      2.08229853	      0.67661885	     -0.66570080	      0.93322364	     -0.08956605	     -2.65355539	     -0.05482315	     -5.27292881	     38.79702207	     -3.05788495	      0.67713578	      4.44265822	     -7.23318558	     -7.63585563	     30.18439429	      5.84588268	      6.68440318	     24.01571194	     -0.94222005	      0.41915325	      5.33006537	     -7.27510038	     -7.63585563	     -1.75483903	     -8.12967131	      3.96883157	     -0.65851323	    -11.17147513	     -2.34583551	     26.31774214	     90.00000001	      0.00000000	      0.00000000	    -10.66861056	    -12.11651100	    -13.62251862	     18.27743794	     90.00000001	      0.00000000	      0.00000000
      0.99000000	     -8.04788840	      2.09564767	      0.73944437	     -0.65395649	      0.93559053	     -0.09067644	     -0.53689526	     -0.46656194	     -5.49084079	     42.53836441	     -3.06307345	      0.74243452	      3.82720035	     -9.15241723	     -7.63314265	     29.22171052	      6.07425393	      6.34086764	     23.42928288	     -1.36580627	      0.40891813	      6.02413321	     -6.30142360	     -7.63314265	     -1.54240054	     -8.10944398	      3.77427081	     -1.16884909	    -10.89998833	     -2.00745522	     25.56553268	     90.00000001	      0.00000000	      0.00000000	    -10.24879125	    -12.14649822	    -13.17359060	     18.87571738	     90.00000001	      0.00000000	      0.00000000
      1.00000000	     -7.99806523	      1.98343523	      0.83764790	     -0.64218552	      0.93829552	     -0.09158001	      1.26286339	     -0.65595948	     -5.85101848	     45.78221862	     -3.25964920	      0.79905045	      3.57159378	    -10.75474695	     -7.63016651	     27.98190118	      6.07060774	      6.13472934	     22.76923792	     -1.56860656	      0.39739817	      6.74488550	     -5.54887324	     -7.63016651	     -1.57099125	     -7.94298736	      3.45523845	     -1.63742377	    -10.60704357	     -1.70805533	     24.90589953	     90.00000001	      0.00000000	      0.00000000	     -9.77603042	    -12.18621111	    -12.65185838	     19.44493428	     90.00000001	      0.00000000	      0.00000000
      1.01000000	     -8.06567874	      1.89722657	      1.01162855	     -0.63064769	      0.94084042	     -0.09269152	      3.22102695	     -0.93497234	     -6.06948769	     48.86836532	     -3.24455526	      0.85291387	      3.32776661	    -12.69659297	     -7.62669514	     26.84678706	      6.19554178	      6.20621562	     22.02467022	     -1.82701651	      0.38440301	      7.25337015	     -4.84761815	     -7.62669514	     -1.48241922	     -7.79038875	      3.13693264	     -2.14241403	    -10.34949826	     -1.45732781	     24.26441108	     90.00000001	      0.00000000	      0.00000000	     -9.29088519	    -12.25255505	    -11.90735492	     20.15833751	     90.00000001	      0.00000000	      0.00000000
      1.02000000	     -7.64248062	      1.42257173	      1.28012016	     -0.61902673	      0.94405407	     -0.09392728	      4.39358270	     -0.73984506	     -6.47118906	     51.09811845	     -3.26500916	      0.89183041	      3.63104696	    -13.10294019	     -7.62521037	     25.31485450	      5.83200121	      6.13737822	     21.59139810	     -1.94261440	      0.37684099	      7.63659409	     -4.52103798	     -7.62521037	     -1.99278275	     -7.12758845	      2.60796122	     -2.57341313	    -10.20741036	     -1.37644975	     23.91551322	     90.00000001	      0.00000000	      0.00000000	     -8.60752366	    -12.13685386	    -11.61402196	     20.68252984	     90.00000001	      0.00000000	      0.00000000
      1.03000000	     -7.75072439	      1.45625463	      1.52973159	     -0.60725958	      0.94654425	     -0.09476865	      6.32851072	     -1.15632944	     -6.91606424	     53.49919293	     -3.36337495	      0.93373706	      3.62866843	    -15.00848301	     -7.62253688	     23.87370156	      6.04722836	      6.74296909	     20.18493292	     -2.08856368	      0.35229354	      8.21127243	     -3.79535464	     -7.62253688	     -1.77039447	     -7.14922027	      2.18980400	     -3.11415097	     -9.79809518	     -1.17716585	     23.22958732	     90.00000001	      0.00000000	      0.00000000	     -8.12266263	    -12.36471957	    -10.72553061	     21.29492580	     90.00000001	      0.00000000	      0.00000000
      1.04000000	     -7.59772695	      1.16210163	      1.83098872	     -0.59584629	      0.94931540	     -0.09584391	      7.85171846	     -1.20593270	     -7.12778911	     55.28808497	     -3.17990201	      0.96495912	      3.95099331	    -15.81584752	     -7.62006461	     22.39319902	      5.88460016	      7.11023889	     19.23054787	     -2.21559990	      0.33563638	      8.51846593	     -3.42244198	     -7.62006461	     -1.93173967	     -6.71809501	      1.68002270	     -3.60799304	     -9.56025658	     -1.17786787	     22.84794386	     90.00000001	      0.00000000	      0.00000000	     -7.50455816	    -12.44930822	     -9.89467220	     21.94547011	     90.00000001	      0.00000000	      0.00000000
      1.05000000	     -7.43572059	      0.81877940	      2.16223848	     -0.58452875	      0.95201709	     -0.09688871	      9.31450510	     -1.19620295	     -7.32689732	     56.66412106	     -2.94944674	      0.98897548	      4.37780268	    -16.18464639	     -7.61784717	     20.88265763	      5.65797328	      7.47152826	     18.20941120	     -2.36991133	      0.31781418	      8.81143761	     -2.98605569	     -7.61784717	     -2.10149436	     -6.22606406	      1.14520984	     -4.11737531	     -9.33134449	     -1.24672147	     22.55555372	     90.00000001	      0.00000000	      0.00000000	     -6.82261690	    -12.55185113	     -9.11860560	     22.56289656	     90.00000001	      0.00000000	      0.00000000
